<?xml version="1.0" encoding="UTF-8"?>
<!DOCTYPE svg PUBLIC "-//W3C//DTD SVG 1.1//EN" "http://www.w3.org/Graphics/SVG/1.1/DTD/svg11.dtd">
<svg xmlns="http://www.w3.org/2000/svg" version="1.1" width="528px" height="383px"
     style="shape-rendering:geometricPrecision; text-rendering:geometricPrecision; image-rendering:optimizeQuality; fill-rule:evenodd; clip-rule:evenodd">

<!-- stripe -->
    <g>
        <path style="opacity:1" fill="white"
              d="M 104.5,110.5 C 131.835,110.333 159.169,110.5 186.5,111C 187.833,113.333 187.833,115.667 186.5,118C 159.167,118.667 131.833,118.667 104.5,118C 101.914,115.506 101.914,113.006 104.5,110.5 Z"/>
    </g>
    <!-- stripe -->
    <g>
        <path style="opacity:1" fill="white"
              d="M 207.5,135.5 C 215.84,135.334 224.173,135.5 232.5,136C 235.167,138.667 235.167,141.333 232.5,144C 224.167,144.667 215.833,144.667 207.5,144C 204.899,141.17 204.899,138.337 207.5,135.5 Z"/>
    </g>
    <!-- stripe -->
    <g>
        <path style="opacity:1" fill="white"
              d="M 121.5,153.5 C 143.169,153.333 164.836,153.5 186.5,154C 187.982,156.592 187.648,158.925 185.5,161C 164.5,161.667 143.5,161.667 122.5,161C 119.055,158.852 118.721,156.352 121.5,153.5 Z"/>
    </g>
    <!-- stripe -->
    <g>
        <path style="opacity:1" fill="white"
              d="M 100.5,187.5 C 104.846,187.334 109.179,187.501 113.5,188C 116.167,190.333 116.167,192.667 113.5,195C 109.167,195.667 104.833,195.667 100.5,195C 97.9142,192.506 97.9142,190.006 100.5,187.5 Z"/>
    </g>
    <!-- stripe -->
    <g>
        <path style="opacity:1" fill="white"
              d="M 198.5,187.5 C 217.17,187.333 235.836,187.5 254.5,188C 257.167,190.333 257.167,192.667 254.5,195C 235.833,195.667 217.167,195.667 198.5,195C 195.914,192.506 195.914,190.006 198.5,187.5 Z"/>
    </g>
    <!-- stripe -->
    <g>
        <path style="opacity:1" fill="white"
              d="M 113.5,332.5 C 139.169,332.333 164.835,332.5 190.5,333C 193.167,335.333 193.167,337.667 190.5,340C 164.833,340.667 139.167,340.667 113.5,340C 110.914,337.506 110.914,335.006 113.5,332.5 Z"/>
    </g>
    <!-- body stroke -->
    <g>
        <path style="opacity:1" fill="black"
              d="M 141.5,178.5 C 164.176,176.514 175.843,186.847 176.5,209.5C 177.705,216.241 175.705,221.741 170.5,226C 174.154,230.988 178.488,235.321 183.5,239C 195.7,239.196 207.866,239.696 220,240.5C 226.005,235.158 231.339,229.158 236,222.5C 239.733,220.605 242.233,221.605 243.5,225.5C 241.261,229.748 238.594,233.748 235.5,237.5C 237.177,239.54 238.844,241.54 240.5,243.5C 241.18,237.001 243.846,231.501 248.5,227C 249.609,226.362 250.775,225.862 252,225.5C 275.409,233.456 297.576,243.956 318.5,257C 331.647,266.815 343.48,277.981 354,290.5C 354.884,297.582 354.551,304.582 353,311.5C 351.59,312.787 350.09,313.954 348.5,315C 324.5,315.333 300.5,315.667 276.5,316C 270.551,322.538 263.218,324.871 254.5,323C 250.467,321.651 247.134,319.318 244.5,316C 208.5,315.333 172.5,315.333 136.5,316C 125.072,326.035 113.905,325.868 103,315.5C 94.5146,299.476 98.6813,288.143 115.5,281.5C 115.334,274.492 115.5,267.492 116,260.5C 117.167,258.667 118.667,257.167 120.5,256C 125.823,255.501 131.156,255.334 136.5,255.5C 136.666,245.494 136.5,235.494 136,225.5C 124.364,218.276 120.364,207.943 124,194.5C 127.503,186.492 133.336,181.159 141.5,178.5 Z"/>
    </g>
    <!-- helmet-->
    <g>
        <path style="opacity:1" fill="red"
              d="M 141.5,187.5 C 146.179,187.334 150.845,187.501 155.5,188C 151.618,189.679 148.452,192.179 146,195.5C 144.534,200.735 146.034,204.901 150.5,208C 156.048,209.451 161.715,210.284 167.5,210.5C 167.5,212.5 167.5,214.5 167.5,216.5C 157.507,215.5 147.507,215.334 137.5,216C 131.689,211.199 129.856,205.032 132,197.5C 134.022,192.98 137.189,189.647 141.5,187.5 Z"/>
        <path style="opacity:1" fill="white"
              d="M 162.5,201.5 C 162.741,198.966 161.741,197.3 159.5,196.5C 161.171,194.992 163.004,194.659 165,195.5C 165.931,197.459 166.764,199.459 167.5,201.5C 165.905,202.434 164.239,202.434 162.5,201.5 Z"/>
        <path style="opacity:1" fill="#5b7784"
              d="M 159.5,196.5 C 161.741,197.3 162.741,198.966 162.5,201.5C 159.881,201.768 157.381,201.435 155,200.5C 155.128,197.969 156.628,196.635 159.5,196.5 Z"/>
    </g>
    <!-- suit -->
    <g>
        <path style="opacity:1" fill="#efefef"
              d="M 190.5,248.5 C 198.174,248.334 205.841,248.5 213.5,249C 212.122,250.713 210.455,252.047 208.5,253C 197.491,253.417 186.491,253.917 175.5,254.5C 165.639,246.472 156.639,237.638 148.5,228C 149.798,224.795 152.132,223.795 155.5,225C 163.167,232 170.833,239 178.5,246C 182.208,248.132 186.208,248.965 190.5,248.5 Z"/>
        <path style="opacity:1" fill="#e1e1e1"
              d="M 145.5,239.5 C 148.245,240.737 150.578,242.57 152.5,245C 150.236,245.236 148.069,245.736 146,246.5C 145.503,244.19 145.337,241.857 145.5,239.5 Z"/>
        <path style="opacity:1" fill="#bec5c8"
              d="M 190.5,248.5 C 198.656,247.343 206.99,247.177 215.5,248C 218.167,250.667 218.167,253.333 215.5,256C 202.835,256.818 190.168,257.152 177.5,257C 176.619,256.292 175.953,255.458 175.5,254.5C 186.491,253.917 197.491,253.417 208.5,253C 210.455,252.047 212.122,250.713 213.5,249C 205.841,248.5 198.174,248.334 190.5,248.5 Z"/>
        <path style="opacity:1" fill="#c8d0d4"
              d="M 231.5,283.5 C 228.402,281.108 225.069,278.942 221.5,277C 205.586,273.293 189.586,270.126 173.5,267.5C 168.894,264.421 165.728,260.421 164,255.5C 167.201,259.036 170.701,262.203 174.5,265C 193.897,266.628 212.897,270.295 231.5,276C 236.598,278.895 236.598,281.395 231.5,283.5 Z"/>
        <path style="opacity:1" fill="#efeff0"
              d="M 173.5,267.5 C 189.586,270.126 205.586,273.293 221.5,277C 225.069,278.942 228.402,281.108 231.5,283.5C 229.918,284.876 228.085,285.876 226,286.5C 213.653,281.564 200.82,279.064 187.5,279C 181.843,276.343 177.176,272.509 173.5,267.5 Z"/>

    </g>
    <!-- kart -->
    <g>
        <path style="opacity:1" fill="#ed4032"
              d="M 251.5,237.5 C 279.594,246.779 303.594,262.279 323.5,284C 317.509,284.499 311.509,284.666 305.5,284.5C 305.768,282.901 305.434,281.568 304.5,280.5C 303.337,274.025 300.004,268.858 294.5,265C 280.712,258.793 266.379,254.293 251.5,251.5C 249.987,249.465 249.321,247.131 249.5,244.5C 249.316,241.795 249.983,239.462 251.5,237.5 Z"/>
        <path style="opacity:1" fill="#eb2f4a"
              d="M 279.5,267.5 C 282.223,270.586 284.723,273.92 287,277.5C 287.76,281.225 287.593,284.892 286.5,288.5C 289.77,289.058 292.77,290.058 295.5,291.5C 295.611,292.117 295.944,292.617 296.5,293C 310.163,293.5 323.829,293.667 337.5,293.5C 337.5,293.833 337.5,294.167 337.5,294.5C 337.5,298.167 337.5,301.833 337.5,305.5C 319.167,305.5 300.833,305.5 282.5,305.5C 282.802,302.941 282.468,300.607 281.5,298.5C 279.835,290.001 274.835,284.501 266.5,282C 261.129,281.324 255.796,281.491 250.5,282.5C 252.619,278.262 254.786,273.929 257,269.5C 257.567,266.832 258.067,264.166 258.5,261.5C 265.5,263.5 272.5,265.5 279.5,267.5 Z"/>
        <path style="opacity:1" fill="#525a5e"
              d="M 124.5,263.5 C 128.846,263.334 133.179,263.501 137.5,264C 139.104,269.477 141.104,274.811 143.5,280C 137.175,280.5 130.842,280.666 124.5,280.5C 124.5,274.833 124.5,269.167 124.5,263.5 Z"/>
        <path style="opacity:1" fill="#c41e1d"
              d="M 304.5,280.5 C 305.434,281.568 305.768,282.901 305.5,284.5C 311.509,284.666 317.509,284.499 323.5,284C 303.594,262.279 279.594,246.779 251.5,237.5C 252.659,235.623 254.326,235.123 256.5,236C 274.135,242.651 291.135,250.651 307.5,260C 318.218,266.882 327.885,275.048 336.5,284.5C 325.854,285.499 315.187,285.832 304.5,285.5C 304.5,283.833 304.5,282.167 304.5,280.5 Z"/>
        <path style="opacity:1" fill="#b31737"
              d="M 279.5,267.5 C 288.252,269.423 293.918,274.59 296.5,283C 295.784,285.792 295.451,288.626 295.5,291.5C 292.77,290.058 289.77,289.058 286.5,288.5C 287.593,284.892 287.76,281.225 287,277.5C 284.723,273.92 282.223,270.586 279.5,267.5 Z"/>
        <path style="opacity:1" fill="#f24234"
              d="M 210.5,290.5 C 215.066,293.557 219.233,297.224 223,301.5C 224.009,303.025 224.509,304.692 224.5,306.5C 196.5,306.5 168.5,306.5 140.5,306.5C 141.252,300.741 140.252,295.407 137.5,290.5C 157.664,289.724 177.831,289.058 198,288.5C 202.442,288.326 206.609,288.993 210.5,290.5 Z"/>
        <path style="opacity:1" fill="#e42e48"
              d="M 241.5,286.5 C 242.995,286.415 243.995,287.081 244.5,288.5C 242.152,291.199 240.318,294.199 239,297.5C 237.315,295.983 235.815,294.316 234.5,292.5C 236.853,290.477 239.186,288.477 241.5,286.5 Z"/>
        <path style="opacity:1" fill="#5e0b1d"
              d="M 337.5,294.5 C 337.5,294.167 337.5,293.833 337.5,293.5C 340.5,293.5 343.5,293.5 346.5,293.5C 346.818,298.032 346.485,302.366 345.5,306.5C 345.5,302.5 345.5,298.5 345.5,294.5C 342.833,294.5 340.167,294.5 337.5,294.5 Z"/>
        <path style="opacity:1" fill="#34444c"
              d="M 265.5,290.5 C 273.686,294.932 275.52,301.266 271,309.5C 269.549,311.464 267.716,312.797 265.5,313.5C 267.328,309.85 268.661,306.017 269.5,302C 269.046,297.804 267.713,293.971 265.5,290.5 Z"/>
        <path style="opacity:1" fill="#c41d1d"
              d="M 210.5,290.5 C 220.671,291.747 228.338,296.747 233.5,305.5C 230.572,306.484 227.572,306.817 224.5,306.5C 224.509,304.692 224.009,303.025 223,301.5C 219.233,297.224 215.066,293.557 210.5,290.5 Z"/>
        <path style="opacity:1" fill="#d02541"
              d="M 337.5,294.5 C 340.167,294.5 342.833,294.5 345.5,294.5C 345.5,298.5 345.5,302.5 345.5,306.5C 324.167,306.5 302.833,306.5 281.5,306.5C 281.5,303.833 281.5,301.167 281.5,298.5C 282.468,300.607 282.802,302.941 282.5,305.5C 300.833,305.5 319.167,305.5 337.5,305.5C 337.5,301.833 337.5,298.167 337.5,294.5 Z"/>
    </g>
    <!-- seat -->
    <g>
        <path style="opacity:1" fill="#35444c"
              d="M 153.5,280.5 C 157.182,280.665 160.848,280.499 164.5,280C 157.829,273.475 151.995,266.309 147,258.5C 146.517,259.448 146.351,260.448 146.5,261.5C 144.67,256.155 146.67,253.988 152.5,255C 158.055,264.554 165.055,272.888 173.5,280C 166.693,281.411 160.026,281.577 153.5,280.5 Z"/>
        <path style="opacity:1" fill="#5d7a88"
              d="M 153.5,280.5 C 149.806,274.758 147.472,268.425 146.5,261.5C 146.351,260.448 146.517,259.448 147,258.5C 151.995,266.309 157.829,273.475 164.5,280C 160.848,280.499 157.182,280.665 153.5,280.5 Z"/>
    </g>
    <!-- front wheel -->
    <g>
        <path style="opacity:1" fill="#5d7987"
              d="M 265.5,290.5 C 267.713,293.971 269.046,297.804 269.5,302C 268.661,306.017 267.328,309.85 265.5,313.5C 255.493,316.493 249.493,312.827 247.5,302.5C 248.181,296.63 251.181,292.463 256.5,290C 259.555,289.366 262.555,289.532 265.5,290.5 Z"/>
    </g>
    <!-- back wheel -->
    <g>
        <path style="opacity:1" fill="#35444c"
              d="M 124.5,291.5 C 129.652,292.921 132.319,296.421 132.5,302C 132.038,308.121 129.038,312.288 123.5,314.5C 129.569,306.994 129.902,299.328 124.5,291.5 Z"/>
        <path style="opacity:1" fill="#5e7a88"
              d="M 124.5,291.5 C 129.902,299.328 129.569,306.994 123.5,314.5C 109.793,314.958 104.959,308.625 109,295.5C 113.224,289.433 118.391,288.099 124.5,291.5 Z"/>
        <path style="opacity:1" fill="#050708"
              d="M 117.5,298.5 C 123.235,297.821 124.902,300.155 122.5,305.5C 115.789,306.788 114.122,304.454 117.5,298.5 Z"/>
        <path style="opacity:1" fill="#040607"
              d="M 257.5,298.5 C 264.536,297.603 266.203,300.103 262.5,306C 256.788,306.433 255.122,303.933 257.5,298.5 Z"/>
    </g>
</svg>
